HIERARCHY
ROOT Hips
{
	OFFSET 0.00000 0.00000 0.00000
	CHANNELS 6 Xposition Yposition Zposition Zrotation Yrotation Xrotation 
	JOINT LHipJoint
	{
		OFFSET 0 0 0
		CHANNELS 3 Zrotation Yrotation Xrotation
		JOINT LeftHip
		{
			OFFSET 1.75344 -1.53157 0.77399
			CHANNELS 3 Zrotation Yrotation Xrotation
			JOINT LeftKnee
			{
				OFFSET 2.25415 -6.19323 0.00000
				CHANNELS 3 Zrotation Yrotation Xrotation
				JOINT LeftAnkle
				{
					OFFSET 2.30342 -6.32861 0.00000
					CHANNELS 3 Zrotation Yrotation Xrotation
					JOINT LeftToe
					{
						OFFSET 0.10958 -0.30108 1.49206
						CHANNELS 3 Zrotation Yrotation Xrotation
						End Site
						{
							OFFSET 0.00000 -0.00000 0.77783
						}
					}
				}
			}
		}
	}
	JOINT RHipJoint
	{
		OFFSET 0 0 0
		CHANNELS 3 Zrotation Yrotation Xrotation
		JOINT RightHip
		{
			OFFSET -1.81912 -1.53156 0.77399
			CHANNELS 3 Zrotation Yrotation Xrotation
			JOINT RightKnee
			{
				OFFSET -2.22882 -6.12365 0.00000
				CHANNELS 3 Zrotation Yrotation Xrotation
				JOINT RightAnkle
				{
					OFFSET -2.21943 -6.09785 0.00000
					CHANNELS 3 Zrotation Yrotation Xrotation
					JOINT RightToe
					{
						OFFSET -0.18931 -0.52012 1.59379
						CHANNELS 3 Zrotation Yrotation Xrotation
						End Site
						{
							OFFSET -0.00000 -0.00000 0.84686
						}
					}
				}
			}
		}
	}
	JOINT lowerback
	{
		OFFSET 0 0 0
		CHANNELS 3 Zrotation Yrotation Xrotation
		JOINT Chest
		{
			OFFSET -0.00200 1.66634 -0.14248
			CHANNELS 3 Zrotation Yrotation Xrotation
			JOINT Chest2
			{
				OFFSET -0.00875 1.64542 0.09514
				CHANNELS 3 Zrotation Yrotation Xrotation
				JOINT lowerneck
				{
					OFFSET 0 0 0
					CHANNELS 3 Zrotation Yrotation Xrotation
					JOINT Neck
					{
						OFFSET 0.02257 1.59605 0.00839
						CHANNELS 3 Zrotation Yrotation Xrotation
						JOINT Head
						{
							OFFSET -0.10214 1.57530 -0.23335
							CHANNELS 3 Zrotation Yrotation Xrotation
							End Site
							{
								OFFSET -0.03588 1.60717 -0.08062
							}
						}
					}
				}
				JOINT LeftCollar
				{
					OFFSET 0 0 0
					CHANNELS 3 Zrotation Yrotation Xrotation
					JOINT LeftShoulder
					{
						OFFSET 2.54983 1.10186 0.40078
CHANNELS 3 Zrotation Xrotation Yrotation
						JOINT LeftElbow
						{
OFFSET 0 -4.288400 0.000000
CHANNELS 3 Zrotation Xrotation Yrotation
							JOINT LeftWrist
							{
OFFSET 0 -3.065520 -0.000000
CHANNELS 3 Zrotation Xrotation Yrotation
								JOINT lhand
								{
									OFFSET 0 0 0
CHANNELS 3 Zrotation Xrotation Yrotation
									JOINT LFingers
									{
OFFSET 0 -0.753040 0.000000
CHANNELS 3 Zrotation Xrotation Yrotation
										End Site
										{
OFFSET 0 -0.607120 0.000000
										}
									}
								}
								JOINT LThumb
								{
OFFSET 0 0.000000 0.000000
CHANNELS 3 Zrotation Xrotation Yrotation
									End Site
									{
OFFSET 0 -0.616390 0.616390
									}
								}
							}
						}
					}
				}
				JOINT RightCollar
				{
					OFFSET 0 0 0
					CHANNELS 3 Zrotation Yrotation Xrotation
					JOINT RightShoulder
					{
						OFFSET -2.60909 1.35448 0.21802
CHANNELS 3 Zrotation Xrotation Yrotation
						JOINT RightElbow
						{
OFFSET 0 -4.521720 -0.000000
CHANNELS 3 Zrotation Xrotation Yrotation
							JOINT RightWrist
							{
OFFSET 0 -2.891400 0.000000
CHANNELS 3 Zrotation Xrotation Yrotation
								JOINT rhand
								{
									OFFSET 0 0 0
CHANNELS 3 Zrotation Xrotation Yrotation
									JOINT RFingers
									{
OFFSET 0 -0.680540 0.000000
CHANNELS 3 Zrotation Xrotation Yrotation
										End Site
										{
OFFSET 0 -0.548670 0.000000
										}
									}
								}
								JOINT RThumb
								{
OFFSET 0 0.000000 0.000000
CHANNELS 3 Zrotation Xrotation Yrotation
									End Site
									{
OFFSET 0 -0.557050 0.557050
									}
								}
							}
						}
					}
				}
			}
		}
	}
}
MOTION
Frames: 10
Frame Time: 0.008333333333333333
8.097984 15.107659 15.089550 -178.360681 -2.095916 -178.044190 0.000000 0.000000 0.000000 -18.704633 -14.475015 -18.060354 5.132454 13.530792 41.390727 2.156894 1.143516 -28.213995 3.091293 -10.841242 -31.746503 0.000000 0.000000 0.000000 27.393121 8.576901 -14.588344 -3.633821 -11.655662 34.525533 -0.807532 -12.582900 -25.787857 -0.038841 1.271011 -3.494873 0.799949 1.213925 13.088326 -0.520801 1.706070 -3.489827 -1.400386 0.732289 -11.131332 -6.478854 -3.686520 -6.984270 6.059939 -4.639725 2.039431 2.933685 -2.238196 2.224591 0.000000 0.000000 0.000000 4.030089 6.771202 -37.630035 26.998819 -38.178046 9.498375 9.443967 4.340285 36.594445 0.000000 0.000000 0.000000 -7.125000 0.000000 0.000000 -12.919458 -6.163780 -14.589876 0.000000 0.000000 0.000000 -6.210989 3.979820 49.692596 -24.024666 -35.190231 -7.720802 -14.163870 27.745439 54.580026 0.000000 0.000000 0.000000 7.125000 0.000000 0.000000 72.559955 76.931163 -59.362174
8.093005 15.137661 15.069208 -178.362711 -1.924753 -178.198748 0.000000 0.000000 0.000000 -18.858437 -14.380227 -17.286029 4.930190 13.303300 40.517223 2.080208 1.523094 -27.855282 3.002021 -10.697356 -31.266955 0.000000 0.000000 0.000000 27.440844 8.587224 -13.825269 -3.459446 -11.402297 33.651147 -0.727766 -12.777686 -25.340266 -0.045077 1.368668 -3.763827 0.815155 1.224986 13.009686 -0.532048 1.721355 -3.506199 -1.422552 0.738231 -11.101775 -6.498116 -3.626934 -6.972106 6.056257 -4.564404 2.333168 2.940855 -2.199160 2.315911 0.000000 0.000000 0.000000 4.005186 6.845001 -37.529901 27.002429 -38.181487 9.500620 9.835876 3.813406 36.444868 0.000000 0.000000 0.000000 -7.125000 0.000000 0.000000 -12.698245 -6.075656 -14.310450 0.000000 0.000000 0.000000 -6.159396 4.054585 50.008513 -24.149334 -35.321683 -7.792797 -14.053189 27.241338 54.042513 0.000000 0.000000 0.000000 7.125000 0.000000 0.000000 70.290893 76.779581 -57.066685
8.088600 15.167690 15.048502 -178.386441 -1.714238 -178.322918 0.000000 0.000000 0.000000 -19.025130 -14.246113 -16.535381 4.729416 13.070849 39.636898 2.012342 1.901093 -27.553469 2.902766 -10.535411 -30.729182 0.000000 0.000000 0.000000 27.464356 8.629332 -13.069453 -3.284448 -11.139848 32.755315 -0.654368 -12.949666 -24.913192 -0.049363 1.433749 -3.943148 0.810498 1.266306 12.901914 -0.559656 1.771457 -3.545036 -1.458441 0.761064 -11.079205 -6.508627 -3.607917 -6.978316 6.022717 -4.542939 2.670851 2.933469 -2.187484 2.428026 0.000000 0.000000 0.000000 3.952809 6.954377 -37.385803 26.970786 -38.151289 9.481103 10.116382 3.424648 36.254283 0.000000 0.000000 0.000000 -7.125000 0.000000 0.000000 -12.531924 -5.931622 -14.085587 0.000000 0.000000 0.000000 -6.094003 4.177235 50.303275 -24.255333 -35.433077 -7.854170 -14.483815 27.069252 53.350937 0.000000 0.000000 0.000000 7.125000 0.000000 0.000000 67.239763 76.777856 -54.235592
8.084089 15.197588 15.027732 -178.435282 -1.471642 -178.412155 0.000000 0.000000 0.000000 -19.207084 -14.094633 -15.811603 4.530011 12.833160 38.748757 1.954546 2.262866 -27.312721 2.820991 -10.399252 -30.279777 0.000000 0.000000 0.000000 27.460050 8.722411 -12.315501 -3.108871 -10.867967 31.837221 -0.589574 -13.101600 -24.529685 -0.050553 1.450968 -3.990653 0.790301 1.332245 12.750656 -0.607146 1.849103 -3.596132 -1.511879 0.797246 -11.043558 -6.486201 -3.618183 -7.012383 5.947661 -4.561077 3.036408 2.903477 -2.196070 2.555010 0.000000 0.000000 0.000000 3.896792 7.087892 -37.210993 26.914519 -38.097532 9.446373 10.230373 3.178633 36.087171 0.000000 0.000000 0.000000 -7.125000 0.000000 0.000000 -12.455861 -5.786017 -13.967470 0.000000 0.000000 0.000000 -5.995574 4.333113 50.500461 -24.358629 -35.541189 -7.914150 -14.917009 26.960227 52.725302 0.000000 0.000000 0.000000 7.125000 0.000000 0.000000 64.494036 76.776317 -51.709107
8.078214 15.226656 15.006370 -178.494791 -1.216897 -178.480057 0.000000 0.000000 0.000000 -19.396979 -13.967985 -15.091618 4.332029 12.589249 37.850244 1.904574 2.628313 -27.127327 2.748817 -10.276725 -29.877785 0.000000 0.000000 0.000000 27.449522 8.911086 -11.521129 -2.934006 -10.586901 30.899570 -0.534795 -13.259757 -24.231224 -0.047654 1.409159 -3.875297 0.780002 1.401443 12.530472 -0.669631 1.930661 -3.624056 -1.584816 0.835088 -10.939875 -6.426615 -3.614521 -7.058007 5.872664 -4.563213 3.354554 2.867085 -2.196833 2.666170 0.000000 0.000000 0.000000 3.881076 7.188219 -37.026820 26.848296 -38.034056 9.405479 10.147365 3.006285 36.052992 0.000000 0.000000 0.000000 -7.125000 0.000000 0.000000 -12.496907 -5.740393 -14.006761 0.000000 0.000000 0.000000 -5.835510 4.476546 50.474750 -24.491381 -35.679586 -7.991435 -14.162997 26.315621 52.634360 0.000000 0.000000 0.000000 7.125000 0.000000 0.000000 64.445360 76.452907 -51.323823
8.072896 15.257046 14.984659 -178.489558 -0.938552 -178.582070 0.000000 0.000000 0.000000 -19.527701 -13.857071 -14.319491 4.134951 12.336287 36.934607 1.848197 3.116146 -26.957249 2.729691 -10.244071 -29.770756 0.000000 0.000000 0.000000 27.523159 9.141530 -10.663895 -2.762342 -10.297968 29.949040 -0.477440 -13.433230 -23.921345 -0.040090 1.290007 -3.547124 0.800263 1.453934 12.356235 -0.699118 1.999132 -3.649264 -1.637425 0.865829 -10.860836 -6.373017 -3.562893 -7.045710 5.843614 -4.505967 3.615266 2.851230 -2.168149 2.745307 0.000000 0.000000 0.000000 3.863410 7.263623 -36.752842 26.759239 -37.948581 9.350663 9.947542 2.866935 36.206915 0.000000 0.000000 0.000000 -7.125000 0.000000 0.000000 -12.617316 -5.860734 -14.172266 0.000000 0.000000 0.000000 -5.674958 4.654925 50.652040 -24.611949 -35.804617 -8.061829 -14.514627 25.966395 52.460575 0.000000 0.000000 0.000000 7.125000 0.000000 0.000000 63.588025 76.534176 -50.634039
8.067770 15.287656 14.963191 -178.479032 -0.645640 -178.678633 0.000000 0.000000 0.000000 -19.651920 -13.769656 -13.537312 3.938512 12.076122 36.004655 1.792950 3.589182 -26.793597 2.724926 -10.235877 -29.743899 0.000000 0.000000 0.000000 27.599131 9.358673 -9.813577 -2.592593 -10.001715 28.984512 -0.418002 -13.596648 -23.576169 -0.033273 1.175280 -3.231180 0.820335 1.505373 12.219827 -0.719149 2.066897 -3.712272 -1.681473 0.895246 -10.846736 -6.347309 -3.502303 -6.968312 5.834075 -4.439581 3.881716 2.848546 -2.135951 2.815404 0.000000 0.000000 0.000000 3.817231 7.392324 -36.438756 26.623551 -37.817657 9.267424 9.746935 2.834507 36.229812 0.000000 0.000000 0.000000 -7.125000 0.000000 0.000000 -12.726192 -5.853756 -14.298964 0.000000 0.000000 0.000000 -5.533780 4.874671 50.824286 -24.694988 -35.890536 -8.110397 -14.800059 25.723137 52.311026 0.000000 0.000000 0.000000 7.125000 0.000000 0.000000 62.855216 76.596186 -50.037900
8.062557 15.317216 14.940995 -178.481548 -0.372250 -178.760985 0.000000 0.000000 0.000000 -19.786650 -13.708741 -12.748616 3.742148 11.807612 35.056769 1.742055 4.021009 -26.646106 2.705117 -10.201330 -29.631432 0.000000 0.000000 0.000000 27.656872 9.542135 -8.973759 -2.423641 -9.695633 27.998237 -0.358725 -13.755016 -23.221412 -0.027801 1.075786 -2.957266 0.827105 1.552180 12.073987 -0.733819 2.126191 -3.797181 -1.710333 0.921129 -10.852312 -6.375161 -3.440780 -6.840160 5.866462 -4.373404 4.151148 2.871017 -2.104562 2.880507 0.000000 0.000000 0.000000 3.757589 7.577266 -36.137154 26.462981 -37.662113 9.169144 9.564482 2.891929 36.018831 0.000000 0.000000 0.000000 -7.125000 0.000000 0.000000 -12.804991 -5.622355 -14.344983 0.000000 0.000000 0.000000 -5.419930 5.111447 50.969116 -24.724299 -35.920822 -8.127573 -14.909743 25.536476 52.171918 0.000000 0.000000 0.000000 7.125000 0.000000 0.000000 62.244589 76.591407 -49.483969
8.056911 15.344071 14.916581 -178.514354 -0.166257 -178.822783 0.000000 0.000000 0.000000 -19.948316 -13.676927 -11.952185 3.545081 11.528987 34.085625 1.698949 4.395230 -26.529987 2.633706 -10.077048 -29.226769 0.000000 0.000000 0.000000 27.679455 9.671453 -8.138646 -2.254040 -9.376191 26.979561 -0.302801 -13.919658 -22.898460 -0.023681 0.994305 -2.733114 0.806506 1.586818 11.851286 -0.745569 2.163956 -3.874085 -1.712850 0.939439 -10.804933 -6.489449 -3.384018 -6.684368 5.976630 -4.313284 4.409708 2.936706 -2.076257 2.943068 0.000000 0.000000 0.000000 3.710821 7.809428 -35.916741 26.313445 -37.516468 9.077897 9.409453 3.000953 35.478442 0.000000 0.000000 0.000000 -7.125000 0.000000 0.000000 -12.841383 -5.075176 -14.276548 0.000000 0.000000 0.000000 -5.341348 5.328427 51.086685 -24.681346 -35.876571 -8.102396 -14.869002 25.362526 52.006360 0.000000 0.000000 0.000000 7.125000 0.000000 0.000000 61.605780 76.517554 -48.834785
8.052537 15.373170 14.893663 -178.604002 -0.076340 -178.871866 0.000000 0.000000 0.000000 -20.164954 -13.730449 -11.145806 3.347939 11.236227 33.082845 1.647167 4.810063 -26.378940 2.586453 -9.993227 -28.955011 0.000000 0.000000 0.000000 27.638615 9.730542 -7.320362 -2.086309 -9.041043 25.925585 -0.250842 -14.102624 -22.628835 -0.017392 0.847231 -2.328566 0.657190 1.596176 11.524175 -0.732412 2.150265 -3.881509 -1.599591 0.945559 -10.625324 -6.622286 -3.326133 -6.661630 6.078497 -4.244264 4.703046 3.003218 -2.042792 3.042725 0.000000 0.000000 0.000000 3.674524 7.960666 -35.780543 26.227033 -37.431928 9.025317 10.232321 2.307765 35.968154 0.000000 0.000000 0.000000 -7.125000 0.000000 0.000000 -12.444958 -5.671481 -13.931010 0.000000 0.000000 0.000000 -5.297543 5.394777 51.151451 -24.575717 -35.767103 -8.040571 -14.753844 24.910203 51.653899 0.000000 0.000000 0.000000 7.125000 0.000000 0.000000 60.287718 76.340266 -47.480094
